<svg width="145" height="36" viewBox="0 0 145 36" fill="none" xmlns="http://www.w3.org/2000/svg">
<path d="M44.6561 18.0166L49.5261 22.8379L54.396 18.0166L49.5261 13.2138L44.6561 18.0166ZM22.6201 18.0166L26.893 22.249L31.1845 18.0166L26.893 13.8026L22.6201 18.0166ZM0.584106 18.0166L4.31586 21.6969L8.04762 18.0166L4.31586 14.3363L0.584106 18.0166ZM88.7095 18.0166L94.7737 24.0157L100.856 18.0166L94.7737 12.036L88.7095 18.0166ZM66.6734 18.0166L72.1778 23.4268L77.6448 18.0166L72.1778 12.6249L66.6734 18.0166ZM144.107 16.9861C143.894 13.4653 142.627 10.0858 140.466 7.2753C138.306 4.46475 135.348 2.34934 131.968 1.19664C128.588 0.0439405 124.937 -0.0942672 121.478 0.799493C118.018 1.69325 114.905 3.57882 112.532 6.21773C110.159 8.85663 108.633 12.1304 108.147 15.6248C107.661 19.1191 108.236 22.6772 109.8 25.8489C111.365 29.0207 113.848 31.6637 116.936 33.4436C120.023 35.2234 123.577 36.0602 127.147 35.848C131.931 35.5637 136.406 33.4171 139.587 29.8802C142.767 26.3431 144.393 21.7052 144.107 16.9861ZM130.02 5.65064C132.913 6.56861 135.385 8.46514 136.998 11.0055C136.322 11.4699 135.527 11.7377 134.703 11.7784C133.937 11.8158 133.173 11.6678 132.478 11.347C131.783 11.0262 131.178 10.5425 130.716 9.93808C130.254 9.33368 129.949 8.62691 129.828 7.87955C129.706 7.13219 129.772 6.36703 130.02 5.65064ZM115.877 25.5062C114.3 23.4914 113.377 21.0543 113.227 18.5135C113.227 18.127 113.227 17.7591 113.227 17.3725C114.159 17.4341 115.051 17.7712 115.785 18.34C116.52 18.9088 117.064 19.6827 117.346 20.5608C117.628 21.439 117.635 22.3806 117.366 23.2626C117.097 24.1449 116.565 24.9268 115.839 25.5062H115.877ZM115.317 10.7847C116.952 8.28017 119.429 6.42348 122.314 5.54023C122.443 5.91534 122.525 6.30462 122.557 6.69944C122.628 7.91704 122.206 9.1128 121.384 10.0238C120.562 10.9348 119.406 11.4864 118.172 11.5576C117.149 11.6565 116.123 11.4099 115.261 10.8583L115.317 10.7847ZM126.885 30.401C125.075 30.5013 123.263 30.2254 121.568 29.5914C121.855 28.6475 122.443 27.82 123.244 27.2319C124.046 26.6436 125.019 26.3259 126.018 26.3259C127.017 26.3259 127.99 26.6436 128.791 27.2319C129.593 27.82 130.181 28.6475 130.468 29.5914C129.306 30.0621 128.08 30.3598 126.829 30.4747L126.885 30.401ZM131.364 17.115L129.722 21.7338C129.637 21.9924 129.469 22.2164 129.243 22.3724C129.018 22.5286 128.747 22.6079 128.471 22.5987L123.508 22.4883C123.234 22.4871 122.968 22.3988 122.75 22.2363C122.531 22.0738 122.372 21.8458 122.295 21.5865L120.859 16.8942C120.784 16.6337 120.794 16.3568 120.888 16.1024C120.982 15.8481 121.154 15.6292 121.381 15.4771L125.449 12.68C125.672 12.524 125.94 12.4403 126.214 12.4403C126.488 12.4403 126.755 12.524 126.979 12.68L130.916 15.6429C131.15 15.8176 131.317 16.0663 131.388 16.3475C131.459 16.6287 131.431 16.9254 131.307 17.1886L131.364 17.115ZM136.756 24.8069C135.927 24.2909 135.285 23.5298 134.921 22.6322C134.557 21.7345 134.491 20.7465 134.731 19.8094C134.971 18.8721 135.506 18.0338 136.258 17.4144C137.011 16.7949 137.942 16.4259 138.92 16.3604C138.92 16.5445 138.92 16.7286 139.014 16.9126C139.168 19.749 138.353 22.5545 136.7 24.8804L136.756 24.8069Z" fill="#FF004C"/>
</svg>
