<svg width="145" height="36" viewBox="0 0 145 36" fill="none" xmlns="http://www.w3.org/2000/svg">
<path d="M100.344 18.0166L95.4739 22.8379L90.604 18.0166L95.4739 13.2138L100.344 18.0166ZM122.38 18.0166L118.107 22.249L113.815 18.0166L118.107 13.8026L122.38 18.0166ZM144.416 18.0166L140.684 21.6969L136.952 18.0166L140.684 14.3363L144.416 18.0166ZM56.2905 18.0166L50.2263 24.0157L44.1436 18.0166L50.2263 12.036L56.2905 18.0166ZM78.3266 18.0166L72.8222 23.4268L67.3552 18.0166L72.8222 12.6249L78.3266 18.0166ZM0.892502 16.9861C1.10577 13.4653 2.37288 10.0858 4.53368 7.2753C6.69447 4.46475 9.65202 2.34934 13.0319 1.19664C16.4119 0.0439405 20.0626 -0.0942672 23.5223 0.799493C26.9819 1.69325 30.0951 3.57882 32.4681 6.21773C34.8409 8.85663 36.3671 12.1304 36.8533 15.6248C37.3395 19.1191 36.764 22.6772 35.1995 25.8489C33.6352 29.0207 31.152 31.6637 28.0644 33.4436C24.9769 35.2234 21.4233 36.0602 17.8534 35.848C13.0686 35.5637 8.59396 33.4171 5.41348 29.8802C2.233 26.3431 0.606888 21.7052 0.892502 16.9861ZM14.9799 5.65064C12.0865 6.56861 9.61502 8.46514 8.00159 11.0055C8.6781 11.4699 9.47334 11.7377 10.2965 11.7784C11.063 11.8158 11.8272 11.6678 12.5223 11.347C13.2174 11.0262 13.8223 10.5425 14.2842 9.93808C14.7462 9.33368 15.051 8.62691 15.1723 7.87955C15.2936 7.13219 15.2276 6.36703 14.9799 5.65064ZM29.1233 25.5062C30.7 23.4914 31.6234 21.0543 31.7728 18.5135C31.7728 18.127 31.7728 17.7591 31.7728 17.3725C30.8409 17.4341 29.9495 17.7712 29.2148 18.34C28.4801 18.9088 27.9362 19.6827 27.6542 20.5608C27.3722 21.439 27.365 22.3806 27.6338 23.2626C27.9025 24.1449 28.4346 24.9268 29.1606 25.5062H29.1233ZM29.683 10.7847C28.0478 8.28017 25.5706 6.42348 22.686 5.54023C22.557 5.91534 22.4755 6.30462 22.4434 6.69944C22.3721 7.91704 22.7938 9.1128 23.6161 10.0238C24.4384 10.9348 25.5937 11.4864 26.8283 11.5576C27.8509 11.6565 28.8772 11.4099 29.7391 10.8583L29.683 10.7847ZM18.1146 30.401C19.9251 30.5013 21.7369 30.2254 23.4323 29.5914C23.1453 28.6475 22.5573 27.82 21.7556 27.2319C20.954 26.6436 19.9815 26.3259 18.9822 26.3259C17.983 26.3259 17.0105 26.6436 16.2089 27.2319C15.4072 27.82 14.8193 28.6475 14.5322 29.5914C15.6938 30.0621 16.92 30.3598 18.1706 30.4747L18.1146 30.401ZM13.6365 17.115L15.2785 21.7338C15.3634 21.9924 15.5313 22.2164 15.7568 22.3724C15.9823 22.5286 16.2533 22.6079 16.5286 22.5987L21.4919 22.4883C21.7656 22.4871 22.0315 22.3988 22.2501 22.2363C22.4688 22.0738 22.6282 21.8458 22.7047 21.5865L24.1414 16.8942C24.2162 16.6337 24.2061 16.3568 24.1123 16.1024C24.0185 15.8481 23.8459 15.6292 23.619 15.4771L19.5513 12.68C19.3276 12.524 19.0604 12.4403 18.7864 12.4403C18.5123 12.4403 18.2451 12.524 18.0214 12.68L14.0843 15.6429C13.8499 15.8176 13.6832 16.0663 13.6119 16.3475C13.5407 16.6287 13.5691 16.9254 13.6925 17.1886L13.6365 17.115ZM8.24416 24.8069C9.07307 24.2909 9.7153 23.5298 10.0789 22.6322C10.4426 21.7345 10.509 20.7465 10.2689 19.8094C10.0287 18.8721 9.49432 18.0338 8.74184 17.4144C7.98935 16.7949 7.05757 16.4259 6.07973 16.3604C6.07973 16.5445 6.07974 16.7286 5.98639 16.9126C5.83218 19.749 6.6469 22.5545 8.30005 24.8804L8.24416 24.8069Z" fill="#FF004C"/>
</svg>
